<svg id="Layer_1" data-name="Layer 1" xmlns="http://www.w3.org/2000/svg" viewBox="0 0 211.27 39.08"><defs><style>.cls-1{fill:#0081c3;}</style></defs><title>addlevel_logo_blue</title><path class="cls-1" d="M27.22,46.77l-1.86-3.72h-.2a11.06,11.06,0,0,1-4,3.32,13.19,13.19,0,0,1-5.26.89,8.25,8.25,0,0,1-6.25-2.38,9.28,9.28,0,0,1-2.28-6.69,7.62,7.62,0,0,1,3.13-6.68q3.12-2.19,9-2.47l4.69-.15v-.4q0-3.47-3.42-3.47A20.47,20.47,0,0,0,13,27.11l-2.8-6.4a27,27,0,0,1,12.4-2.53q5.41,0,8.37,2.68a9.58,9.58,0,0,1,3,7.49V46.77ZM20,40.43a4.38,4.38,0,0,0,3-1.12,3.71,3.71,0,0,0,1.25-2.9V34.23l-2.23.1q-4.79.17-4.79,3.52Q17.28,40.43,20,40.43Z" transform="translate(-7.38 -8.19)"/><path class="cls-1" d="M48.25,47.27A8.4,8.4,0,0,1,43,45.56a10.84,10.84,0,0,1-3.47-5,22.36,22.36,0,0,1-1.23-7.76q0-6.84,2.75-10.71a8.78,8.78,0,0,1,7.56-3.87,8.66,8.66,0,0,1,4.13.94A9.12,9.12,0,0,1,56,22.3h.2a46.45,46.45,0,0,1-.47-6.6V8.19h9.77V46.77H58.17l-2.08-3.55h-.37A8.22,8.22,0,0,1,48.25,47.27Zm4-7.66a3.62,3.62,0,0,0,3.29-1.46,8.81,8.81,0,0,0,1-4.51v-.77q0-3.72-1.07-5.29A3.76,3.76,0,0,0,52.12,26a3.28,3.28,0,0,0-3,1.8,10.21,10.21,0,0,0-1.05,5.12,9.5,9.5,0,0,0,1.07,5A3.39,3.39,0,0,0,52.22,39.61Z" transform="translate(-7.38 -8.19)"/><path class="cls-1" d="M79.89,47.27a8.4,8.4,0,0,1-5.24-1.71,10.84,10.84,0,0,1-3.47-5,22.36,22.36,0,0,1-1.23-7.76q0-6.84,2.75-10.71a8.78,8.78,0,0,1,7.56-3.87,8.67,8.67,0,0,1,4.13.94,9.12,9.12,0,0,1,3.24,3.17h.2a46.45,46.45,0,0,1-.47-6.6V8.19h9.77V46.77H89.81l-2.08-3.55h-.37A8.22,8.22,0,0,1,79.89,47.27Zm4-7.66a3.62,3.62,0,0,0,3.29-1.46,8.82,8.82,0,0,0,1-4.51v-.77q0-3.72-1.07-5.29A3.76,3.76,0,0,0,83.76,26a3.28,3.28,0,0,0-3,1.8,10.22,10.22,0,0,0-1.05,5.12,9.5,9.5,0,0,0,1.07,5A3.39,3.39,0,0,0,83.86,39.61Z" transform="translate(-7.38 -8.19)"/><path class="cls-1" d="M112.5,46.77h-9.7V8.19h9.7Z" transform="translate(-7.38 -8.19)"/><path class="cls-1" d="M131.76,47.27q-7,0-10.9-3.73T117,32.91q0-7.12,3.6-10.92t10.26-3.81q6.35,0,9.81,3.31T144.11,31v4.31H126.78A4.81,4.81,0,0,0,128.5,39a6.76,6.76,0,0,0,4.43,1.34,21.37,21.37,0,0,0,4.7-.48,23.39,23.39,0,0,0,4.65-1.65v7a17.07,17.07,0,0,1-4.71,1.61A32.57,32.57,0,0,1,131.76,47.27Zm-.57-22.49a4,4,0,0,0-2.86,1.08A5.07,5.07,0,0,0,127,29.24h8.33A4.83,4.83,0,0,0,134.16,26,3.81,3.81,0,0,0,131.19,24.78Z" transform="translate(-7.38 -8.19)"/><path class="cls-1" d="M155.94,46.77,145.23,18.68h10.12l4.76,16.61c0,.08,0,.22.1.42s.1.43.15.71.09.56.14.87a6.64,6.64,0,0,1,.06.85h.17a9.9,9.9,0,0,1,.45-2.8l5-16.66h10.09L165.54,46.77Z" transform="translate(-7.38 -8.19)"/><path class="cls-1" d="M192.14,47.27q-7,0-10.9-3.73t-3.88-10.62q0-7.12,3.59-10.92t10.27-3.81q6.35,0,9.81,3.31T204.49,31v4.31H187.16a4.82,4.82,0,0,0,1.72,3.7,6.76,6.76,0,0,0,4.43,1.34,21.39,21.39,0,0,0,4.7-.48,23.35,23.35,0,0,0,4.65-1.65v7a17,17,0,0,1-4.71,1.61A32.58,32.58,0,0,1,192.14,47.27Zm-.57-22.49a4,4,0,0,0-2.86,1.08,5.06,5.06,0,0,0-1.35,3.38h8.33A4.83,4.83,0,0,0,194.54,26,3.81,3.81,0,0,0,191.57,24.78Z" transform="translate(-7.38 -8.19)"/><path class="cls-1" d="M218.65,46.77H209V8.19h9.7Z" transform="translate(-7.38 -8.19)"/></svg>